<svg width="28" height="28" viewBox="0 0 28 28" fill="none" xmlns="http://www.w3.org/2000/svg">
<path d="M0 14C0 6.26801 6.26801 0 14 0C21.732 0 28 6.26801 28 14C28 21.732 21.732 28 14 28C6.26801 28 0 21.732 0 14Z" fill="#F4EBFF"/>
<path fill-rule="evenodd" clip-rule="evenodd" d="M19.9457 8.62193L11.5923 16.6836L9.37568 14.3153C8.96734 13.9303 8.32568 13.9069 7.85901 14.2336C7.40401 14.5719 7.27568 15.1669 7.55568 15.6453L10.1807 19.9153C10.4373 20.3119 10.8807 20.5569 11.3823 20.5569C11.8607 20.5569 12.3157 20.3119 12.5723 19.9153C12.9923 19.3669 21.0073 9.81193 21.0073 9.81193C22.0573 8.7386 20.7857 7.7936 19.9457 8.61027V8.62193Z" fill="#9E77ED"/>
</svg>
