<svg width="155" height="109" viewBox="0 0 155 109" fill="none" xmlns="http://www.w3.org/2000/svg">
<path d="M0 27.5137V7.42315H4.5543V12.0765L4.03592 11.3009C4.40619 9.84829 5.14673 8.76498 6.25753 8.05098C7.36833 7.33697 8.67661 6.97997 10.1824 6.97997C11.8362 6.97997 13.2926 7.41084 14.5515 8.27256C15.8104 9.13429 16.625 10.2668 16.9953 11.6702L15.6253 11.781C16.2424 10.1807 17.1681 8.98656 18.4023 8.1987C19.6366 7.38622 21.0559 6.97997 22.6604 6.97997C24.0921 6.97997 25.3634 7.30004 26.4742 7.94018C27.6097 8.58032 28.4983 9.47898 29.1401 10.6362C29.7819 11.7687 30.1028 13.0859 30.1028 14.5878V27.5137H25.2523V15.7326C25.2523 14.8463 25.0918 14.0831 24.7709 13.4429C24.45 12.8028 24.0057 12.3104 23.438 11.9657C22.8702 11.5964 22.1791 11.4117 21.3645 11.4117C20.5992 11.4117 19.9204 11.5964 19.328 11.9657C18.7356 12.3104 18.2789 12.8028 17.958 13.4429C17.6371 14.0831 17.4767 14.8463 17.4767 15.7326V27.5137H12.6261V15.7326C12.6261 14.8463 12.4657 14.0831 12.1448 13.4429C11.8239 12.8028 11.3672 12.3104 10.7748 11.9657C10.2071 11.5964 9.52823 11.4117 8.73833 11.4117C7.9731 11.4117 7.29428 11.5964 6.70185 11.9657C6.10942 12.3104 5.65276 12.8028 5.33186 13.4429C5.01096 14.0831 4.85051 14.8463 4.85051 15.7326V27.5137H0Z" fill="currentColor"/>
<path d="M41.3896 27.9568C39.8345 27.9568 38.4768 27.6121 37.3167 26.9228C36.1812 26.2334 35.3049 25.2732 34.6878 24.0421C34.0953 22.8111 33.7991 21.3708 33.7991 19.7212V7.42315H38.6496V19.315C38.6496 20.1521 38.8101 20.8907 39.131 21.5308C39.4766 22.1463 39.9579 22.6387 40.575 23.0081C41.2168 23.3527 41.9327 23.5251 42.7226 23.5251C43.5125 23.5251 44.216 23.3527 44.8331 23.0081C45.4502 22.6387 45.9316 22.134 46.2771 21.4939C46.6227 20.8537 46.7955 20.0905 46.7955 19.2042V7.42315H51.646V27.5137H47.0547V23.562L47.462 24.2637C46.993 25.4947 46.2154 26.418 45.1293 27.0335C44.0679 27.6491 42.8213 27.9568 41.3896 27.9568Z" fill="currentColor"/>
<path d="M63.8195 27.9568C61.6719 27.9568 59.7959 27.4521 58.1914 26.4427C56.6116 25.4086 55.5255 24.0175 54.933 22.2694L58.5617 20.5337C59.08 21.6662 59.7959 22.5526 60.7092 23.1927C61.6472 23.8329 62.684 24.1529 63.8195 24.1529C64.7081 24.1529 65.4116 23.956 65.93 23.562C66.4484 23.1681 66.7076 22.6511 66.7076 22.0109C66.7076 21.617 66.5965 21.2969 66.3743 21.0507C66.1768 20.7799 65.893 20.5583 65.5227 20.386C65.1771 20.189 64.7945 20.029 64.3749 19.9058L61.0795 18.9826C59.3762 18.4902 58.0803 17.7392 57.1917 16.7298C56.3277 15.7203 55.8957 14.5262 55.8957 13.1475C55.8957 11.9164 56.2043 10.8454 56.8214 9.93446C57.4632 8.99887 58.3395 8.27256 59.4503 7.75553C60.5858 7.23849 61.8817 6.97997 63.3381 6.97997C65.2388 6.97997 66.9174 7.43546 68.3738 8.34642C69.8302 9.25739 70.8669 10.5377 71.484 12.1873L67.7813 13.923C67.4357 13.012 66.8557 12.2857 66.0411 11.7441C65.2265 11.2024 64.3132 10.9316 63.3011 10.9316C62.4865 10.9316 61.8447 11.1163 61.3757 11.4856C60.9067 11.8549 60.6722 12.335 60.6722 12.9259C60.6722 13.2952 60.7709 13.6153 60.9684 13.8861C61.1659 14.1569 61.4374 14.3785 61.783 14.5508C62.1533 14.7232 62.5729 14.8832 63.0419 15.0309L66.2632 15.9912C67.9171 16.4836 69.1884 17.2222 70.077 18.207C70.9903 19.1918 71.447 20.3983 71.447 21.8263C71.447 23.0327 71.1261 24.1037 70.4843 25.0393C69.8425 25.9502 68.9538 26.6642 67.8184 27.1813C66.6829 27.6983 65.3499 27.9568 63.8195 27.9568Z" fill="currentColor"/>
<path d="M75.1745 27.5137V7.42315H80.0251V27.5137H75.1745ZM75.1745 5.17035V0H80.0251V5.17035H75.1745Z" fill="currentColor"/>
<path d="M94.2046 27.9568C92.2051 27.9568 90.4032 27.5013 88.7987 26.5904C87.2189 25.6548 85.9723 24.3991 85.059 22.8234C84.1456 21.2231 83.689 19.4257 83.689 17.4315C83.689 15.4372 84.1456 13.6522 85.059 12.0765C85.9723 10.5007 87.2189 9.25739 88.7987 8.34642C90.4032 7.43546 92.2051 6.97997 94.2046 6.97997C95.6363 6.97997 96.9692 7.23849 98.2035 7.75553C99.4377 8.24794 100.499 8.93732 101.388 9.82367C102.301 10.6854 102.955 11.7195 103.35 12.9259L99.0921 14.7724C98.7218 13.763 98.0924 12.9505 97.2038 12.335C96.3398 11.7195 95.3401 11.4117 94.2046 11.4117C93.1432 11.4117 92.1928 11.6702 91.3535 12.1873C90.5389 12.7043 89.8971 13.4183 89.4281 14.3293C88.9591 15.2402 88.7246 16.2866 88.7246 17.4684C88.7246 18.6502 88.9591 19.6966 89.4281 20.6075C89.8971 21.5185 90.5389 22.2325 91.3535 22.7495C92.1928 23.2666 93.1432 23.5251 94.2046 23.5251C95.3648 23.5251 96.3768 23.2173 97.2408 22.6018C98.1047 21.9863 98.7218 21.1615 99.0921 20.1274L103.35 22.0479C102.955 23.1804 102.313 24.2022 101.425 25.1131C100.536 25.9995 99.4747 26.7012 98.2405 27.2182C97.0063 27.7106 95.661 27.9568 94.2046 27.9568Z" fill="currentColor"/>
<path d="M10.7378 68.4784C9.13328 68.4784 7.66455 68.1214 6.33158 67.4074C5.0233 66.6934 4.01124 65.684 3.29539 64.3791L3.77673 63.7882V68.0352H0.407295V40.0784H3.85079V52.4134L3.33241 51.564C4.07295 50.3822 5.08501 49.4466 6.36861 48.7572C7.65221 48.0432 9.12094 47.6862 10.7748 47.6862C12.6508 47.6862 14.3294 48.1417 15.8104 49.0527C17.3162 49.9636 18.5011 51.207 19.365 52.7827C20.229 54.3338 20.661 56.1065 20.661 58.1008C20.661 60.0458 20.229 61.8062 19.365 63.3819C18.5011 64.9576 17.3162 66.201 15.8104 67.112C14.3294 68.0229 12.6385 68.4784 10.7378 68.4784ZM10.4786 65.1546C11.7375 65.1546 12.8606 64.8469 13.848 64.2313C14.8354 63.6158 15.6006 62.7787 16.1437 61.72C16.7114 60.6367 16.9953 59.4303 16.9953 58.1008C16.9953 56.722 16.7114 55.5156 16.1437 54.4815C15.6006 53.4228 14.8354 52.5857 13.848 51.9702C12.8606 51.3301 11.7375 51.01 10.4786 51.01C9.21968 51.01 8.08419 51.3178 7.07212 51.9333C6.08474 52.5488 5.29483 53.3982 4.7024 54.4815C4.13466 55.5402 3.85079 56.7466 3.85079 58.1008C3.85079 59.4303 4.13466 60.6367 4.7024 61.72C5.29483 62.7787 6.08474 63.6158 7.07212 64.2313C8.08419 64.8469 9.21968 65.1546 10.4786 65.1546Z" fill="currentColor"/>
<path d="M25.1762 68.0352V48.1294H28.5456V51.7856L28.1754 51.2685C28.6444 50.136 29.3602 49.2989 30.3229 48.7572C31.2856 48.1909 32.4581 47.9078 33.8405 47.9078H35.0624V51.1577H33.3221C31.9151 51.1577 30.7796 51.6009 29.9156 52.4873C29.0517 53.349 28.6197 54.58 28.6197 56.1804V68.0352H25.1762Z" fill="currentColor"/>
<path d="M43.9714 68.4784C42.6631 68.4784 41.5029 68.2445 40.4908 67.7767C39.5035 67.2843 38.7259 66.6195 38.1581 65.7824C37.5904 64.9207 37.3065 63.9359 37.3065 62.828C37.3065 61.7693 37.5287 60.8214 37.973 59.9843C38.442 59.1225 39.1579 58.3962 40.1206 57.8053C41.1079 57.2144 42.3422 56.7959 43.8232 56.5497L51.2286 55.331V58.2116L44.6008 59.3195C43.3172 59.5411 42.3792 59.9473 41.7868 60.5382C41.219 61.1291 40.9352 61.8554 40.9352 62.7172C40.9352 63.5297 41.2561 64.2067 41.8979 64.7484C42.5643 65.29 43.3913 65.5609 44.3787 65.5609C45.6376 65.5609 46.7237 65.3023 47.637 64.7853C48.575 64.2437 49.3032 63.5173 49.8216 62.6064C50.3647 61.6954 50.6362 60.686 50.6362 59.578V54.5185C50.6362 53.4352 50.2289 52.5611 49.4143 51.8964C48.6244 51.207 47.5753 50.8623 46.267 50.8623C45.1315 50.8623 44.1195 51.1577 43.2308 51.7486C42.3669 52.3149 41.7251 53.0782 41.3054 54.0384L38.3063 52.4873C38.6765 51.5763 39.269 50.7638 40.0835 50.0498C40.8981 49.3112 41.8485 48.7326 42.9346 48.314C44.0207 47.8955 45.1562 47.6862 46.3411 47.6862C47.8715 47.6862 49.2168 47.9817 50.377 48.5726C51.5372 49.1388 52.4382 49.939 53.08 50.9731C53.7464 51.9825 54.0797 53.1643 54.0797 54.5185V68.0352H50.7102V64.2683L51.3397 64.4899C50.9201 65.2777 50.3523 65.9671 49.6365 66.558C48.9206 67.1489 48.0813 67.6167 47.1186 67.9614C46.1559 68.3061 45.1068 68.4784 43.9714 68.4784Z" fill="currentColor"/>
<path d="M59.4188 68.0352V48.1294H62.7882V52.0072L62.2328 51.6748C62.7265 50.4191 63.5164 49.4466 64.6025 48.7572C65.7133 48.0432 67.0093 47.6862 68.4903 47.6862C69.922 47.6862 71.1933 48.0063 72.3041 48.6464C73.4396 49.2866 74.3282 50.1729 74.97 51.3055C75.6365 52.438 75.9698 53.7183 75.9698 55.1463V68.0352H72.4892V56.2542C72.4892 55.1463 72.2917 54.2107 71.8968 53.4475C71.5018 52.6842 70.9341 52.0933 70.1936 51.6748C69.4777 51.2316 68.6508 51.01 67.7128 51.01C66.7748 51.01 65.9355 51.2316 65.1949 51.6748C64.4791 52.0933 63.9114 52.6965 63.4917 53.4844C63.0721 54.2476 62.8623 55.1709 62.8623 56.2542V68.0352H59.4188Z" fill="currentColor"/>
<path d="M89.9688 68.4784C88.0928 68.4784 86.4019 68.0229 84.8961 67.112C83.415 66.201 82.2425 64.9576 81.3786 63.3819C80.5146 61.8062 80.0826 60.0458 80.0826 58.1008C80.0826 56.1065 80.5146 54.3338 81.3786 52.7827C82.2425 51.207 83.415 49.9636 84.8961 49.0527C86.4019 48.1417 88.0928 47.6862 89.9688 47.6862C91.6226 47.6862 93.0914 48.0432 94.375 48.7572C95.6586 49.4466 96.6706 50.3822 97.4112 51.564L96.8558 52.4134V40.0784H100.336V68.0352H96.9668V63.7882L97.4112 64.3791C96.72 65.684 95.7079 66.6934 94.375 67.4074C93.0667 68.1214 91.598 68.4784 89.9688 68.4784ZM90.265 65.1546C91.5239 65.1546 92.647 64.8469 93.6344 64.2313C94.6218 63.6158 95.3994 62.7787 95.9671 61.72C96.5595 60.6367 96.8558 59.4303 96.8558 58.1008C96.8558 56.7466 96.5595 55.5402 95.9671 54.4815C95.3994 53.3982 94.6218 52.5488 93.6344 51.9333C92.647 51.3178 91.5239 51.01 90.265 51.01C89.0308 51.01 87.9076 51.3301 86.8956 51.9702C85.9082 52.5857 85.1306 53.4228 84.5629 54.4815C83.9951 55.5156 83.7113 56.722 83.7113 58.1008C83.7113 59.4303 83.9951 60.6367 84.5629 61.72C85.1306 62.7787 85.9082 63.6158 86.8956 64.2313C87.8829 64.8469 89.0061 65.1546 90.265 65.1546Z" fill="currentColor"/>
<path d="M105.666 68.0352V48.1294H109.11V68.0352H105.666ZM105.666 44.9533V40.5216H109.11V44.9533H105.666Z" fill="currentColor"/>
<path d="M114.453 68.0352V48.1294H117.822V52.0072L117.267 51.6748C117.76 50.4191 118.55 49.4466 119.637 48.7572C120.747 48.0432 122.043 47.6862 123.524 47.6862C124.956 47.6862 126.227 48.0063 127.338 48.6464C128.474 49.2866 129.362 50.1729 130.004 51.3055C130.671 52.438 131.004 53.7183 131.004 55.1463V68.0352H127.523V56.2542C127.523 55.1463 127.326 54.2107 126.931 53.4475C126.536 52.6842 125.968 52.0933 125.228 51.6748C124.512 51.2316 123.685 51.01 122.747 51.01C121.809 51.01 120.969 51.2316 120.229 51.6748C119.513 52.0933 118.945 52.6965 118.526 53.4844C118.106 54.2476 117.896 55.1709 117.896 56.2542V68.0352H114.453Z" fill="currentColor"/>
<path d="M145.447 76.1601C144.04 76.1601 142.732 75.9385 141.522 75.4953C140.337 75.0521 139.313 74.4366 138.449 73.6488C137.61 72.8855 136.968 71.9869 136.524 70.9528L139.745 69.4755C140.091 70.4111 140.745 71.199 141.707 71.8391C142.695 72.5039 143.929 72.8363 145.41 72.8363C146.546 72.8363 147.57 72.6147 148.483 72.1715C149.421 71.753 150.162 71.1128 150.705 70.2511C151.248 69.414 151.519 68.3922 151.519 67.1858V62.7172L152.149 63.3819C151.458 64.7361 150.458 65.7701 149.15 66.4841C147.866 67.1981 146.447 67.5551 144.892 67.5551C143.016 67.5551 141.337 67.1243 139.856 66.2626C138.375 65.3762 137.215 64.1821 136.376 62.6802C135.536 61.1537 135.117 59.4672 135.117 57.6207C135.117 55.7495 135.536 54.063 136.376 52.5611C137.215 51.0593 138.363 49.8775 139.819 49.0157C141.3 48.1294 142.979 47.6862 144.855 47.6862C146.41 47.6862 147.817 48.0432 149.076 48.7572C150.359 49.4466 151.384 50.4068 152.149 51.6378L151.631 52.5611V48.1294H155V67.1858C155 68.9093 154.593 70.4481 153.778 71.8022C152.964 73.1563 151.828 74.215 150.372 74.9783C148.94 75.7661 147.298 76.1601 145.447 76.1601ZM145.188 64.2313C146.373 64.2313 147.434 63.9359 148.372 63.345C149.335 62.7541 150.1 61.9662 150.668 60.9814C151.236 59.972 151.519 58.8517 151.519 57.6207C151.519 56.4143 151.236 55.3063 150.668 54.2969C150.1 53.2874 149.335 52.4873 148.372 51.8964C147.434 51.3055 146.373 51.01 145.188 51.01C143.978 51.01 142.88 51.3055 141.893 51.8964C140.905 52.4873 140.128 53.2874 139.56 54.2969C139.017 55.2817 138.745 56.3896 138.745 57.6207C138.745 58.8517 139.017 59.972 139.56 60.9814C140.128 61.9662 140.893 62.7541 141.855 63.345C142.843 63.9359 143.954 64.2313 145.188 64.2313Z" fill="currentColor"/>
<path d="M10.6637 109C8.78769 109 7.10915 108.52 5.62808 107.56C4.17169 106.575 3.08557 105.282 2.36972 103.682L2.66593 103.054V108.557H0.999724V80.6H2.66593V94.6338L2.36972 94.006C3.08557 92.4056 4.17169 91.1254 5.62808 90.1652C7.10915 89.1803 8.78769 88.6879 10.6637 88.6879C12.4904 88.6879 14.1196 89.1311 15.5513 90.0174C17.0076 90.9038 18.1555 92.1225 18.9947 93.6736C19.834 95.2001 20.2537 96.9235 20.2537 98.844C20.2537 100.764 19.834 102.488 18.9947 104.014C18.1555 105.541 17.0076 106.76 15.5513 107.67C14.1196 108.557 12.4904 109 10.6637 109ZM10.6637 107.338C12.1695 107.338 13.5024 106.969 14.6626 106.23C15.8475 105.492 16.7731 104.482 17.4396 103.202C18.1308 101.922 18.4764 100.469 18.4764 98.844C18.4764 97.219 18.1308 95.7664 17.4396 94.4861C16.7731 93.2058 15.8475 92.1964 14.6626 91.4577C13.5024 90.7191 12.1695 90.3498 10.6637 90.3498C9.18265 90.3498 7.83734 90.7191 6.6278 91.4577C5.44294 92.1964 4.50493 93.2058 3.81376 94.4861C3.12259 95.7417 2.77701 97.1944 2.77701 98.844C2.77701 100.469 3.12259 101.922 3.81376 103.202C4.50493 104.482 5.44294 105.492 6.6278 106.23C7.83734 106.969 9.18265 107.338 10.6637 107.338Z" fill="currentColor"/>
<path d="M31.4664 109C30.2816 109 29.2078 108.778 28.2451 108.335C27.3071 107.867 26.5542 107.227 25.9865 106.415C25.4187 105.578 25.1348 104.618 25.1348 103.534C25.1348 102.648 25.3323 101.798 25.7273 100.986C26.1469 100.149 26.8134 99.4225 27.7267 98.807C28.6647 98.1915 29.9113 97.7606 31.4664 97.5144L39.6123 96.148V97.736L32.0218 98.9917C30.0964 99.3118 28.7511 99.878 27.9859 100.691C27.2207 101.503 26.8381 102.426 26.8381 103.46C26.8381 104.691 27.2947 105.664 28.2081 106.378C29.1214 107.092 30.2569 107.449 31.6145 107.449C33.1203 107.449 34.4162 107.092 35.5023 106.378C36.6132 105.664 37.4771 104.728 38.0942 103.571C38.7113 102.389 39.0199 101.121 39.0199 99.7672V95.077C39.0199 93.6244 38.5139 92.4672 37.5018 91.6055C36.5144 90.7191 35.1938 90.2759 33.5399 90.2759C32.281 90.2759 31.1208 90.5837 30.0594 91.1992C28.998 91.8147 28.171 92.6272 27.5786 93.6367L26.0975 92.8611C26.4678 92.1225 27.0109 91.4454 27.7267 90.8299C28.4672 90.1898 29.3312 89.6727 30.3186 89.2788C31.306 88.8849 32.3798 88.6879 33.5399 88.6879C34.9469 88.6879 36.1812 88.9587 37.2426 89.5004C38.3287 90.042 39.168 90.793 39.7604 91.7532C40.3775 92.7134 40.6861 93.8213 40.6861 95.077V108.557H39.0199V104.31H39.168C38.8471 105.122 38.3164 105.885 37.5758 106.599C36.8353 107.313 35.9467 107.892 34.9099 108.335C33.8732 108.778 32.7253 109 31.4664 109Z" fill="currentColor"/>
<path d="M53.5795 109C51.8516 109 50.3212 108.581 48.9882 107.744C47.6552 106.883 46.6555 105.701 45.989 104.199L47.5442 103.497C48.186 104.728 49.0252 105.689 50.062 106.378C51.1234 107.067 52.2959 107.412 53.5795 107.412C54.9619 107.412 56.122 107.067 57.06 106.378C58.0227 105.689 58.5041 104.778 58.5041 103.645C58.5041 103.054 58.3683 102.525 58.0968 102.057C57.8253 101.589 57.418 101.183 56.8749 100.838C56.3565 100.469 55.7147 100.186 54.9495 99.9888L51.7282 99.1025C50.1484 98.6839 48.9635 98.0438 48.1736 97.1821C47.3837 96.2957 46.9888 95.2247 46.9888 93.9691C46.9888 92.935 47.2479 92.024 47.7663 91.2362C48.3094 90.4237 49.0376 89.7958 49.9509 89.3527C50.8642 88.9095 51.8763 88.6879 52.9871 88.6879C54.5669 88.6879 55.9986 89.0942 57.2822 89.9066C58.5905 90.6945 59.4915 91.7409 59.9852 93.0458L58.356 93.7844C57.8129 92.6765 57.0724 91.8147 56.1344 91.1992C55.1964 90.5837 54.1473 90.2759 52.9871 90.2759C51.7529 90.2759 50.7285 90.6206 49.9139 91.31C49.0993 91.9994 48.692 92.8734 48.692 93.9321C48.692 94.4738 48.8154 94.9662 49.0623 95.4094C49.3091 95.8279 49.6794 96.1972 50.1731 96.5173C50.6667 96.8374 51.2715 97.0959 51.9874 97.2928L55.2457 98.2161C56.8502 98.6593 58.0845 99.3487 58.9484 100.284C59.8124 101.195 60.2444 102.291 60.2444 103.571C60.2444 104.605 59.9481 105.541 59.3557 106.378C58.7633 107.19 57.961 107.831 56.949 108.298C55.9616 108.766 54.8384 109 53.5795 109Z" fill="currentColor"/>
<path d="M65.9413 108.557V89.1311H67.6075V108.557H65.9413ZM65.9413 85.1056V81.0432H67.6075V85.1056H65.9413Z" fill="currentColor"/>
<path d="M82.9996 109C81.1977 109 79.5561 108.557 78.0751 107.67C76.6187 106.784 75.4585 105.578 74.5946 104.051C73.7306 102.5 73.2986 100.764 73.2986 98.844C73.2986 96.8989 73.7306 95.1632 74.5946 93.6367C75.4585 92.1102 76.6187 90.9038 78.0751 90.0174C79.5561 89.1311 81.1977 88.6879 82.9996 88.6879C84.2092 88.6879 85.32 88.8849 86.3321 89.2788C87.3688 89.6727 88.2698 90.2144 89.035 90.9038C89.8249 91.5932 90.442 92.381 90.8863 93.2674L89.4793 94.0429C88.7882 92.8119 87.8872 91.8763 86.7764 91.2362C85.6656 90.5714 84.4067 90.239 82.9996 90.239C81.4939 90.239 80.1362 90.596 78.9267 91.31C77.7171 92.024 76.7544 93.0335 76.0386 94.3384C75.3227 95.6186 74.9648 97.1205 74.9648 98.844C74.9648 100.567 75.3227 102.082 76.0386 103.386C76.7544 104.667 77.7171 105.664 78.9267 106.378C80.1362 107.092 81.4939 107.449 82.9996 107.449C84.4067 107.449 85.6656 107.117 86.7764 106.452C87.8872 105.787 88.7882 104.851 89.4793 103.645L90.8863 104.384C90.442 105.245 89.8249 106.033 89.035 106.747C88.2698 107.437 87.3688 107.991 86.3321 108.409C85.32 108.803 84.2092 109 82.9996 109Z" fill="currentColor"/>
<path d="M102.973 109C101.245 109 99.7143 108.581 98.3814 107.744C97.0484 106.883 96.0487 105.701 95.3822 104.199L96.9373 103.497C97.5791 104.728 98.4184 105.689 99.4552 106.378C100.517 107.067 101.689 107.412 102.973 107.412C104.355 107.412 105.515 107.067 106.453 106.378C107.416 105.689 107.897 104.778 107.897 103.645C107.897 103.054 107.762 102.525 107.49 102.057C107.218 101.589 106.811 101.183 106.268 100.838C105.75 100.469 105.108 100.186 104.343 99.9888L101.121 99.1025C99.5415 98.6839 98.3567 98.0438 97.5668 97.1821C96.7769 96.2957 96.3819 95.2247 96.3819 93.9691C96.3819 92.935 96.6411 92.024 97.1595 91.2362C97.7026 90.4237 98.4307 89.7958 99.3441 89.3527C100.257 88.9095 101.269 88.6879 102.38 88.6879C103.96 88.6879 105.392 89.0942 106.675 89.9066C107.984 90.6945 108.885 91.7409 109.378 93.0458L107.749 93.7844C107.206 92.6765 106.466 91.8147 105.528 91.1992C104.59 90.5837 103.54 90.2759 102.38 90.2759C101.146 90.2759 100.122 90.6206 99.307 91.31C98.4925 91.9994 98.0852 92.8734 98.0852 93.9321C98.0852 94.4738 98.2086 94.9662 98.4554 95.4094C98.7023 95.8279 99.0725 96.1972 99.5662 96.5173C100.06 96.8374 100.665 97.0959 101.381 97.2928L104.639 98.2161C106.243 98.6593 107.478 99.3487 108.342 100.284C109.206 101.195 109.638 102.291 109.638 103.571C109.638 104.605 109.341 105.541 108.749 106.378C108.156 107.19 107.354 107.831 106.342 108.298C105.355 108.766 104.232 109 102.973 109Z" fill="currentColor"/>
</svg>
