<svg width="71" height="26" viewBox="0 0 71 26" fill="none" xmlns="http://www.w3.org/2000/svg">
<path d="M0 25.5943V7.13394H4.69769V11.6307L4.19437 10.8869C4.4628 9.46684 5.11153 8.41873 6.14055 7.74252C7.16957 7.06632 8.39992 6.72822 9.83159 6.72822C11.3527 6.72822 12.6838 7.12267 13.8246 7.91157C14.9879 8.67794 15.7149 9.71478 16.0057 11.0221L14.5628 11.1573C15.1668 9.64716 16.0281 8.53143 17.1466 7.81014C18.2651 7.08886 19.5737 6.72822 21.0725 6.72822C22.3923 6.72822 23.5556 7.02124 24.5622 7.60728C25.5912 8.19332 26.3965 9.01604 26.9782 10.0754C27.5598 11.1123 27.8506 12.3294 27.8506 13.7269V25.5943H22.8173V14.8088C22.8173 14.0876 22.6831 13.4677 22.4147 12.9493C22.1686 12.4309 21.8107 12.0251 21.3409 11.7321C20.8712 11.4391 20.3007 11.2926 19.6296 11.2926C18.9809 11.2926 18.4105 11.4391 17.9183 11.7321C17.4486 12.0251 17.0795 12.4309 16.811 12.9493C16.5649 13.4677 16.4419 14.0876 16.4419 14.8088V25.5943H11.4087V14.8088C11.4087 14.0876 11.2745 13.4677 11.006 12.9493C10.7599 12.4309 10.402 12.0251 9.93226 11.7321C9.46249 11.4391 8.89205 11.2926 8.22096 11.2926C7.57223 11.2926 7.00179 11.4391 6.50966 11.7321C6.03989 12.0251 5.67078 12.4309 5.40234 12.9493C5.15627 13.4677 5.03324 14.0876 5.03324 14.8088V25.5943H0Z" fill="currentColor"/>
<path d="M41.0951 26C39.641 26 38.31 25.6732 37.102 25.0195C35.9164 24.3658 34.9993 23.4417 34.3505 22.2471L34.7868 21.7061V25.5943H31.7333V0H34.8539V11.2926L34.3841 10.515C35.0552 9.43303 35.9724 8.57651 37.1356 7.94538C38.2988 7.29172 39.6298 6.96489 41.1286 6.96489C42.8288 6.96489 44.3499 7.38188 45.6921 8.21587C47.0567 9.04985 48.1304 10.1881 48.9134 11.6307C49.6963 13.0507 50.0878 14.6736 50.0878 16.4994C50.0878 18.28 49.6963 19.8916 48.9134 21.3342C48.1304 22.7768 47.0567 23.915 45.6921 24.749C44.3499 25.583 42.8176 26 41.0951 26ZM40.8602 22.9571C42.0011 22.9571 43.0189 22.6753 43.9137 22.1118C44.8085 21.5483 45.502 20.782 45.9941 19.8127C46.5086 18.821 46.7659 17.7165 46.7659 16.4994C46.7659 15.2371 46.5086 14.1326 45.9941 13.186C45.502 12.2167 44.8085 11.4504 43.9137 10.8869C43.0189 10.3008 42.0011 10.0078 40.8602 10.0078C39.7193 10.0078 38.6903 10.2896 37.7731 10.8531C36.8783 11.4166 36.1625 12.1942 35.6256 13.186C35.1111 14.1552 34.8539 15.2596 34.8539 16.4994C34.8539 17.7165 35.1111 18.821 35.6256 19.8127C36.1625 20.782 36.8783 21.5483 37.7731 22.1118C38.6903 22.6753 39.7193 22.9571 40.8602 22.9571Z" fill="currentColor"/>
<path d="M62.3093 26C60.6092 26 59.088 25.5605 57.7458 24.6814C56.426 23.7798 55.4417 22.5964 54.793 21.1313L55.0614 20.5566V25.5943H53.5514V0H55.0614V12.8479L54.793 12.2731C55.4417 10.808 56.426 9.63589 57.7458 8.75683C59.088 7.85522 60.6092 7.40442 62.3093 7.40442C63.9647 7.40442 65.4411 7.81014 66.7385 8.62159C68.0583 9.43303 69.0986 10.5488 69.8591 11.9688C70.6197 13.3663 71 14.9441 71 16.7022C71 18.4603 70.6197 20.0381 69.8591 21.4356C69.0986 22.8331 68.0583 23.9489 66.7385 24.7828C65.4411 25.5943 63.9647 26 62.3093 26ZM62.3093 24.4785C63.6738 24.4785 64.8818 24.1404 65.9332 23.4642C67.007 22.788 67.8458 21.8639 68.4498 20.6918C69.0762 19.5197 69.3894 18.1899 69.3894 16.7022C69.3894 15.2146 69.0762 13.8847 68.4498 12.7126C67.8458 11.5405 67.007 10.6164 65.9332 9.94018C64.8818 9.26398 63.6738 8.92588 62.3093 8.92588C60.9671 8.92588 59.7479 9.26398 58.6518 9.94018C57.578 10.6164 56.728 11.5405 56.1016 12.7126C55.4753 13.8622 55.1621 15.192 55.1621 16.7022C55.1621 18.1899 55.4753 19.5197 56.1016 20.6918C56.728 21.8639 57.578 22.788 58.6518 23.4642C59.7479 24.1404 60.9671 24.4785 62.3093 24.4785Z" fill="currentColor"/>
</svg>
